<svg id="Group_5056" data-name="Group 5056" xmlns="http://www.w3.org/2000/svg" width="32.972" height="31.322" viewBox="0 0 32.972 31.322">
  <g id="Group_5055" data-name="Group 5055">
    <path id="Path_5624" data-name="Path 5624" d="M197.539,275.686a4.964,4.964,0,0,0-1.494.235c.006-.078.015-.157.015-.235a3.95,3.95,0,0,0-3.954-3.948,3.788,3.788,0,0,0-1.153.174,7.53,7.53,0,0,0-15.017.566h-.129a6.422,6.422,0,1,0,0,12.843h21.733a4.818,4.818,0,0,0,0-9.635Z" transform="translate(-169.384 -265.157)" fill="#fff"/>
  </g>
  <path id="Path_5625" data-name="Path 5625" d="M178.771,275.411h3.038l-2.7,2.7,4.468-.025L174.061,285l5.405-5.451h-4.822Z" transform="translate(-164.15 -253.682)" fill="#fff"/>
</svg>
