<svg xmlns="http://www.w3.org/2000/svg" width="79.601" height="78.98" viewBox="0 0 79.601 78.98">
  <g id="Group_5067" data-name="Group 5067" transform="translate(499.25 -502.896)">
    <path id="Path_5648" data-name="Path 5648" d="M-499,691.873a3.238,3.238,0,0,1,3.541-2.095c1.694.084,3.4.008,5.094.021a2.78,2.78,0,0,1,3.069,3.062q.009,16.869,0,33.737a2.829,2.829,0,0,1-3.111,3.116c-1.7.008-3.4-.05-5.094.016a3.187,3.187,0,0,1-3.5-2.159Zm8.913,35.041V692.582h-6.1v34.332Z" transform="translate(0 -148.11)" fill="#2a4663" stroke="#2a4663" stroke-width="0.5"/>
    <path id="Path_5649" data-name="Path 5649" d="M-424.861,565.085h-33.668c-1.727,0-2.1-.367-2.1-2.073q0-16.3,0-32.607v-1.048a26,26,0,0,0-6.623.894c-13.651,3.767-22.253,12.486-25.637,26.284-.043.175-.075.353-.126.525a1.391,1.391,0,0,1-1.645,1.048,1.309,1.309,0,0,1-1.009-1.65,57.21,57.21,0,0,1,2.473-7.768c5.425-11.776,14.6-18.941,27.293-21.528a48.725,48.725,0,0,1,6.137-.606c1.4-.1,1.873.391,1.874,1.79q0,16.458,0,32.916v1.064h33.825c1.567,0,1.986.418,1.96,1.956a37.207,37.207,0,0,1-26.753,35.09c-.971.284-1.648.067-1.99-.636-.394-.809.051-1.576,1.025-1.958a55.5,55.5,0,0,0,6.757-2.78c10.241-5.681,16.2-14.387,17.913-25.985C-425.017,567.078-424.964,566.132-424.861,565.085Z" transform="translate(-2.597 -18.569)" fill="#2a4663" stroke="#2a4663" stroke-width="0.5"/>
    <path id="Path_5650" data-name="Path 5650" d="M-295.628,521.742q0-8.305,0-16.61c0-1.608.406-2,2.015-1.986a35.811,35.811,0,0,1,34.144,27.635,63.836,63.836,0,0,1,.956,7.8c.116,1.226-.461,1.742-1.706,1.743q-16.839.009-33.677,0c-1.256,0-1.729-.48-1.73-1.737Q-295.634,530.163-295.628,521.742Zm34.311,15.8c-.594-18.17-16.24-31.458-31.524-31.5v31.5Z" transform="translate(-161.401)" fill="#2a4663" stroke="#2a4663" stroke-width="0.5"/>
    <path id="Path_5651" data-name="Path 5651" d="M-345.615,754.6q0-5.829,0-11.658a2.787,2.787,0,0,1,3.075-3.124q2.779-.013,5.558,0a2.765,2.765,0,0,1,3.042,3.011q.018,11.774,0,23.548a2.784,2.784,0,0,1-3.085,3.051q-2.74.013-5.48,0a2.793,2.793,0,0,1-3.11-3.093Q-345.62,760.466-345.615,754.6Zm8.878,12.04v-24.02H-342.8v24.02Z" transform="translate(-121.729 -187.822)" fill="#2a4663" stroke="#2a4663" stroke-width="0.5"/>
    <path id="Path_5652" data-name="Path 5652" d="M-410.713,787.523c0,2.676.006,5.353,0,8.029a2.765,2.765,0,0,1-2.918,2.978q-2.933.034-5.866,0a2.754,2.754,0,0,1-2.9-2.924q-.029-8.106,0-16.213a2.739,2.739,0,0,1,2.927-2.894q2.933-.025,5.866,0a2.743,2.743,0,0,1,2.893,2.918C-410.705,782.118-410.713,784.821-410.713,787.523Zm-8.888-8.248v16.45h6.068v-16.45Z" transform="translate(-60.777 -216.929)" fill="#2a4663" stroke="#2a4663" stroke-width="0.5"/>
  </g>
</svg>
