<svg xmlns="http://www.w3.org/2000/svg" width="66.899" height="80.301" viewBox="0 0 66.899 80.301">
  <g id="Group_5066" data-name="Group 5066" transform="translate(670.252 -79)">
    <path id="Path_5641" data-name="Path 5641" d="M-610.617,79a18.252,18.252,0,0,1,2.356.777,8.127,8.127,0,0,1,4.88,7.276c.017.287.017.575.017.862q0,31.24.011,62.481a8.433,8.433,0,0,1-4.289,7.822A8.321,8.321,0,0,1-612,159.3q-11.6-.011-23.205,0-13.249,0-26.5,0a8.321,8.321,0,0,1-8.426-6.946,11.835,11.835,0,0,1-.123-2.108q-.009-31.045,0-62.089c0-4.975,2.307-7.9,7.13-9.06.046-.011.082-.06.123-.091Zm-56.3,40.149q0,15.641,0,31.282c0,3.45,2.062,5.533,5.494,5.533q24.617,0,49.235,0c3.433,0,5.493-2.082,5.493-5.535q0-31.282,0-62.563c0-3.453-2.059-5.531-5.495-5.531q-24.617,0-49.235,0c-3.435,0-5.492,2.078-5.492,5.533Q-666.92,103.508-666.919,119.149Z" transform="translate(0)" fill="#2a4663"/>
    <path id="Path_5642" data-name="Path 5642" d="M-622.328,223.348a16.772,16.772,0,0,1,16.7-16.725,16.807,16.807,0,0,1,16.737,16.783,16.758,16.758,0,0,1-16.8,16.7A16.724,16.724,0,0,1-622.328,223.348Zm8.567,10.542a13.17,13.17,0,0,0,15.12.9,13.394,13.394,0,0,0,5.757-15.533c-1.6-4.911-6.994-9.348-11.059-9.043v.847c0,3.947-.015,7.894.012,11.84a2.581,2.581,0,0,1-.843,2.012c-1.316,1.271-2.595,2.58-3.888,3.874Zm-2.444-2.287c2.966-2.968,5.832-5.826,8.676-8.705a1.2,1.2,0,0,0,.243-.772q.023-5.682.007-11.365a6.509,6.509,0,0,0-.08-.682c-4.918.874-8.517,3.426-10.493,7.95C-619.923,222.769-619.229,227.285-616.206,231.6Z" transform="translate(-37.883 -100.884)" fill="#2a4663"/>
    <path id="Path_5643" data-name="Path 5643" d="M-598.9,398.438q10.7,0,21.4,0c1.235,0,1.927.538,2,1.516a1.649,1.649,0,0,1-1.476,1.8,4.417,4.417,0,0,1-.548.015q-21.361,0-42.721,0c-1.321,0-2.067-.638-2.039-1.725a1.588,1.588,0,0,1,1.442-1.581,8.5,8.5,0,0,1,.939-.025Z" transform="translate(-37.912 -252.51)" fill="#2a4663"/>
    <path id="Path_5644" data-name="Path 5644" d="M-441.694,206.8c1.072,0,2.144-.018,3.215,0a1.613,1.613,0,0,1,1.747,1.688,1.635,1.635,0,0,1-1.738,1.631q-3.254.028-6.508,0a1.67,1.67,0,0,1-1.766-1.7,1.666,1.666,0,0,1,1.757-1.618C-443.889,206.782-442.791,206.8-441.694,206.8Z" transform="translate(-176.679 -101.017)" fill="#2a4663"/>
    <path id="Path_5645" data-name="Path 5645" d="M-441.725,258.028c-1.071,0-2.143.013-3.215,0a1.694,1.694,0,0,1-1.812-1.658,1.674,1.674,0,0,1,1.793-1.664q3.214-.027,6.429,0a1.617,1.617,0,0,1,1.792,1.644,1.664,1.664,0,0,1-1.85,1.68C-439.634,258.037-440.68,258.028-441.725,258.028Z" transform="translate(-176.673 -138.88)" fill="#2a4663"/>
    <path id="Path_5646" data-name="Path 5646" d="M-441.786,305.936c-1.019,0-2.038.007-3.058,0a1.718,1.718,0,0,1-1.91-1.641,1.689,1.689,0,0,1,1.852-1.685q3.175-.022,6.351,0a1.62,1.62,0,0,1,1.81,1.625,1.659,1.659,0,0,1-1.83,1.7C-439.643,305.946-440.714,305.936-441.786,305.936Z" transform="translate(-176.671 -176.751)" fill="#2a4663"/>
    <path id="Path_5647" data-name="Path 5647" d="M-441.686,350.517c1.071,0,2.143-.018,3.214.005a1.608,1.608,0,0,1,1.73,1.625,1.637,1.637,0,0,1-1.753,1.694q-3.254.027-6.507,0a1.673,1.673,0,0,1-1.752-1.637,1.676,1.676,0,0,1,1.775-1.682C-443.882,350.5-442.784,350.518-441.686,350.517Z" transform="translate(-176.671 -214.625)" fill="#2a4663"/>
  </g>
</svg>
