<svg xmlns="http://www.w3.org/2000/svg" width="88.536" height="81.772" viewBox="0 0 88.536 81.772">
  <g id="Group_5063" data-name="Group 5063" transform="translate(671 -104.765)">
    <path id="Path_5632" data-name="Path 5632" d="M-671,138.952c.222-1.035.4-2.084.675-3.1a18.869,18.869,0,0,1,21.064-13.793.663.663,0,0,0,.858-.426c3.675-7.453,11.208-10.5,18.992-7.709a.677.677,0,0,0,.121.027c5.992-8.127,13.8-11.44,23.331-7.566,9.415,3.827,12.728,11.581,11.479,21.458,1.076.451,2.225.84,3.289,1.393a16.141,16.141,0,0,1,8.529,16.913,16.166,16.166,0,0,1-13.21,13.367,17.792,17.792,0,0,1-3.01.228q-26.453.02-52.907,0a18.872,18.872,0,0,1-18.945-15.814c-.083-.447-.177-.893-.266-1.339Zm45.578,17.33v0q13.138,0,26.275-.012a15.13,15.13,0,0,0,3.088-.266,12.662,12.662,0,0,0,10.13-12.785,12.729,12.729,0,0,0-10.738-12.208c-1.624-.281-2.147-1.109-1.66-2.7a15.294,15.294,0,0,0,.507-6.843,15.394,15.394,0,0,0-12.857-12.949A15.4,15.4,0,0,0-626.6,116.53c-.863,1.625-1.528,1.836-3.188,1.011a11.394,11.394,0,0,0-15.877,6.523c-.615,1.783-1.115,2.058-2.956,1.625a15.5,15.5,0,0,0-18.464,18.745,15.379,15.379,0,0,0,14.957,11.837C-643.227,156.313-634.324,156.281-625.422,156.281Z" fill="#2a4663"/>
    <path id="Path_5633" data-name="Path 5633" d="M-586.1,426.453a7.065,7.065,0,0,1-.229.78c-.535,1.334-1.075,2.666-1.635,3.99a1.749,1.749,0,0,1-2.347,1.131,1.747,1.747,0,0,1-.87-2.392c.571-1.443,1.159-2.88,1.786-4.3a1.66,1.66,0,0,1,1.9-1A1.809,1.809,0,0,1-586.1,426.453Z" transform="translate(-61.251 -245.963)" fill="#2a4663"/>
    <path id="Path_5634" data-name="Path 5634" d="M-503.307,369.148a5.511,5.511,0,0,1-.195.681c-.534,1.335-1.07,2.67-1.628,3.995a1.749,1.749,0,0,1-2.332,1.162,1.752,1.752,0,0,1-.875-2.453c.565-1.416,1.132-2.831,1.743-4.227a1.686,1.686,0,0,1,2.063-.992A1.752,1.752,0,0,1-503.307,369.148Z" transform="translate(-124.944 -201.844)" fill="#2a4663"/>
    <path id="Path_5635" data-name="Path 5635" d="M-386.936,367.3c1.505.01,2.379,1.049,2,2.114-.582,1.653-1.26,3.276-1.981,4.874a1.611,1.611,0,0,1-2.152.723,1.627,1.627,0,0,1-.945-2.063c.594-1.589,1.208-3.177,1.947-4.7C-387.829,367.76-387.171,367.484-386.936,367.3Z" transform="translate(-215.998 -201.883)" fill="#2a4663"/>
    <path id="Path_5636" data-name="Path 5636" d="M-526.8,426.543a6.422,6.422,0,0,1-.21.687c-.54,1.331-1.082,2.662-1.643,3.985a1.75,1.75,0,0,1-2.333,1.158,1.748,1.748,0,0,1-.853-2.463c.563-1.415,1.131-2.829,1.745-4.222a1.645,1.645,0,0,1,1.972-1A1.8,1.8,0,0,1-526.8,426.543Z" transform="translate(-106.865 -245.972)" fill="#2a4663"/>
    <path id="Path_5637" data-name="Path 5637" d="M-567.825,373.211a5.586,5.586,0,0,1,.207-.738c.534-1.335,1.073-2.668,1.634-3.992a1.741,1.741,0,0,1,2.347-1.134,1.769,1.769,0,0,1,.838,2.474c-.566,1.415-1.132,2.831-1.748,4.225a1.686,1.686,0,0,1-1.993.989A1.782,1.782,0,0,1-567.825,373.211Z" transform="translate(-79.34 -201.81)" fill="#2a4663"/>
    <path id="Path_5638" data-name="Path 5638" d="M-408.3,426.539a5.2,5.2,0,0,1-.19.678c-.534,1.334-1.071,2.667-1.63,3.99a1.759,1.759,0,0,1-2.331,1.171,1.763,1.763,0,0,1-.875-2.457c.563-1.415,1.132-2.828,1.743-4.223a1.662,1.662,0,0,1,1.968-1.011A1.741,1.741,0,0,1-408.3,426.539Z" transform="translate(-198.012 -245.973)" fill="#2a4663"/>
    <path id="Path_5639" data-name="Path 5639" d="M-444.01,369.114a7.414,7.414,0,0,1-.231.77c-.524,1.309-1.052,2.615-1.6,3.915a1.765,1.765,0,0,1-2.314,1.206,1.772,1.772,0,0,1-.888-2.517c.557-1.388,1.113-2.777,1.712-4.148a1.689,1.689,0,0,1,2.048-1.027A1.77,1.77,0,0,1-444.01,369.114Z" transform="translate(-170.532 -201.849)" fill="#2a4663"/>
    <path id="Path_5640" data-name="Path 5640" d="M-472.81,430.587a5.633,5.633,0,0,1,.2-.685c.534-1.334,1.069-2.667,1.628-3.99a1.726,1.726,0,0,1,2.331-1.152,1.748,1.748,0,0,1,.873,2.453c-.564,1.415-1.134,2.828-1.746,4.222a1.653,1.653,0,0,1-1.974,1A1.722,1.722,0,0,1-472.81,430.587Z" transform="translate(-152.405 -245.961)" fill="#2a4663"/>
  </g>
</svg>
