<svg xmlns="http://www.w3.org/2000/svg" width="133.304" height="95.852" viewBox="0 0 133.304 95.852">
  <g id="MainIcon" transform="translate(-64.759 -117.736)">
    <g id="Group_5045" data-name="Group 5045" transform="translate(147.462 117.736)">
      <path id="Path_5616" data-name="Path 5616" d="M148.02,167.265h0a26.387,26.387,0,0,1-21.985-40.941,26.8,26.8,0,0,1,3.047-3.8,26.165,26.165,0,0,1,5.767-4.5,2.18,2.18,0,0,1,3.072,2.794,22.025,22.025,0,0,0,20.021,31.133,22.171,22.171,0,0,0,11.04-2.947,2.181,2.181,0,0,1,3.07,2.8,26.928,26.928,0,0,1-2,3.627A26.336,26.336,0,0,1,148.02,167.265Zm-16.153-41.341a22.394,22.394,0,0,0-2.2,2.806,22.027,22.027,0,0,0,18.35,34.174h0a21.98,21.98,0,0,0,16.506-7.42,26.406,26.406,0,0,1-32.659-29.56Z" transform="translate(-121.647 -117.736)" fill="#fff"/>
    </g>
    <g id="Group_5046" data-name="Group 5046" transform="translate(64.759 140.32)">
      <path id="Path_5617" data-name="Path 5617" d="M163.168,206.538H88.886a24.127,24.127,0,0,1-1.608-48.2,27.927,27.927,0,0,1,55.2-2.442,15.688,15.688,0,0,1,17.688,13.6,18.641,18.641,0,1,1,3,37.038ZM88.886,162.646a19.766,19.766,0,0,0,0,39.531h74.282a14.279,14.279,0,1,0-4.428-27.854,2.181,2.181,0,0,1-2.854-2.2l.016-.251c.01-.144.022-.288.022-.435A11.324,11.324,0,0,0,141.3,160.606a2.182,2.182,0,0,1-2.8-1.862,23.561,23.561,0,0,0-46.985,1.791,2.138,2.138,0,0,1-2.211,2.121Z" transform="translate(-64.759 -133.271)" fill="#fff"/>
    </g>
  </g>
</svg>
