<svg id="Group_5054" data-name="Group 5054" xmlns="http://www.w3.org/2000/svg" width="32.972" height="31.247" viewBox="0 0 32.972 31.247">
  <g id="Group_5047" data-name="Group 5047">
    <path id="Path_5618" data-name="Path 5618" d="M168.9,275.682a4.836,4.836,0,0,0-1.494.235c0-.078.013-.157.013-.235a3.959,3.959,0,0,0-5.1-3.778,7.533,7.533,0,0,0-15.022.57c-.042,0-.083,0-.129,0a6.424,6.424,0,0,0,0,12.848H168.9a4.818,4.818,0,0,0,0-9.635Z" transform="translate(-140.743 -265.153)" fill="#fff"/>
  </g>
  <g id="Group_5053" data-name="Group 5053" transform="translate(2.33 21.725)">
    <g id="Group_5048" data-name="Group 5048" transform="translate(0.197 0.299)">
      <path id="Path_5619" data-name="Path 5619" d="M142.574,279.68a.638.638,0,0,1-.451-1.089l2.859-2.859a.638.638,0,0,1,.9.9l-2.859,2.859A.635.635,0,0,1,142.574,279.68Z" transform="translate(-141.935 -275.546)" fill="#fff"/>
    </g>
    <g id="Group_5049" data-name="Group 5049">
      <path id="Path_5620" data-name="Path 5620" d="M142.481,284.928a.64.64,0,0,1-.451-1.091l8.245-8.245a.638.638,0,0,1,.9.9l-8.245,8.245A.646.646,0,0,1,142.481,284.928Z" transform="translate(-141.842 -275.405)" fill="#fff"/>
    </g>
    <g id="Group_5050" data-name="Group 5050" transform="translate(6.887 0.299)">
      <path id="Path_5621" data-name="Path 5621" d="M145.731,282.772a.638.638,0,0,1-.451-1.089l5.95-5.95a.638.638,0,0,1,.9.9l-5.952,5.95A.627.627,0,0,1,145.731,282.772Z" transform="translate(-145.092 -275.546)" fill="#fff"/>
    </g>
    <g id="Group_5051" data-name="Group 5051" transform="translate(13.794 2.465)">
      <path id="Path_5622" data-name="Path 5622" d="M148.99,279.616a.642.642,0,0,1-.451-1.093l1.769-1.771a.649.649,0,0,1,.9,0,.641.641,0,0,1,0,.9l-1.769,1.772A.64.64,0,0,1,148.99,279.616Z" transform="translate(-148.352 -276.569)" fill="#fff"/>
    </g>
    <g id="Group_5052" data-name="Group 5052" transform="translate(20.638 0.299)">
      <path id="Path_5623" data-name="Path 5623" d="M152.222,278.8a.638.638,0,0,1-.451-1.089l1.979-1.981a.638.638,0,0,1,.9.9l-1.979,1.981A.639.639,0,0,1,152.222,278.8Z" transform="translate(-151.582 -275.546)" fill="#fff"/>
    </g>
  </g>
</svg>
