<svg xmlns="http://www.w3.org/2000/svg" width="25.091" height="25.091" viewBox="0 0 25.091 25.091">
  <g id="Icon" transform="translate(1.045 1.055)">
    <rect id="Area" width="23" height="23" transform="translate(0 -0.01)" fill="#fcfcfc" opacity="0"/>
    <g id="Icon-2" data-name="Icon" transform="translate(2.299)">
      <path id="_8054aa32-d897-40cc-9fa9-4867a26e6567" data-name="8054aa32-d897-40cc-9fa9-4867a26e6567" d="M3.136-1.045A4.182,4.182,0,1,1-1.045,3.136,4.187,4.187,0,0,1,3.136-1.045Zm0,6.273A2.091,2.091,0,1,0,1.045,3.136,2.093,2.093,0,0,0,3.136,5.227Z" transform="translate(6.065 8.354)" fill="#fff"/>
      <path id="bb8a00a1-4449-4a24-84bd-048e90997a17" d="M12.629,25.09a3.139,3.139,0,0,1-3.136-3.135v-.08a.673.673,0,0,0-.444-.611l-.062-.025a.679.679,0,0,0-.744.131l-.053.054-.007.007a3.138,3.138,0,1,1-4.436-4.439l.057-.057a.679.679,0,0,0,.132-.748l0-.008a.681.681,0,0,0-.623-.412H3.136a3.136,3.136,0,0,1,0-6.273h.079a.674.674,0,0,0,.612-.444q.012-.032.025-.062a.676.676,0,0,0-.131-.744l-.054-.053-.007-.007A3.138,3.138,0,1,1,8.1,3.747l.057.057a.68.68,0,0,0,.746.132,1.045,1.045,0,0,1,.208-.067.681.681,0,0,0,.3-.56V3.136a3.136,3.136,0,1,1,6.272,0V3.23a.679.679,0,0,0,.413.618l.011,0a.672.672,0,0,0,.273.058.679.679,0,0,0,.471-.189l.053-.054.006-.006a3.16,3.16,0,0,1,2.219-.919A3.138,3.138,0,0,1,21.344,8.1l-.057.057a.675.675,0,0,0-.133.745,1.045,1.045,0,0,1,.067.209.681.681,0,0,0,.56.3h.173a3.136,3.136,0,0,1,0,6.272H21.86a.678.678,0,0,0-.617.413l0,.011a.677.677,0,0,0,.131.744l.054.053.006.006a3.16,3.16,0,0,1,.919,2.219,3.138,3.138,0,0,1-5.358,2.217l-.057-.057a.679.679,0,0,0-.747-.133l-.009,0a.681.681,0,0,0-.412.623v.173A3.139,3.139,0,0,1,12.629,25.09ZM9.8,19.312a2.752,2.752,0,0,1,1.783,2.524q0,.012,0,.024v.095a1.046,1.046,0,0,0,2.091,0v-.178A2.782,2.782,0,0,1,18.4,19.8l.008.008.063.063a1.046,1.046,0,0,0,1.481,0,1.046,1.046,0,0,0,0-1.478l-.059-.058-.015-.015a2.785,2.785,0,0,1,1.977-4.725h.1a1.045,1.045,0,0,0,0-2.09h-.178a2.772,2.772,0,0,1-2.54-1.679,1.045,1.045,0,0,1-.076-.276A2.755,2.755,0,0,1,19.8,6.692l.008-.008.063-.063a1.046,1.046,0,0,0,0-1.48,1.046,1.046,0,0,0-1.478,0L18.33,5.2l-.015.015a2.785,2.785,0,0,1-4.725-1.978v-.1a1.045,1.045,0,1,0-2.09,0v.178a2.772,2.772,0,0,1-1.679,2.54,1.046,1.046,0,0,1-.277.076A2.771,2.771,0,0,1,6.692,5.3l-.008-.008-.063-.063a1.046,1.046,0,0,0-1.48,0,1.046,1.046,0,0,0,0,1.479l.059.058.014.014A2.757,2.757,0,0,1,5.779,9.8a2.752,2.752,0,0,1-2.525,1.783H3.136a1.046,1.046,0,1,0,0,2.091h.178A2.784,2.784,0,0,1,5.3,18.4l-.008.008-.063.063a1.046,1.046,0,0,0,0,1.481,1.046,1.046,0,0,0,1.479,0l.058-.059.014-.014A2.77,2.77,0,0,1,9.8,19.312Z" transform="translate(-3.344 -1.055)" fill="#fff"/>
    </g>
  </g>
</svg>
