<svg id="Group_5058" data-name="Group 5058" xmlns="http://www.w3.org/2000/svg" width="37.742" height="26.78" viewBox="0 0 37.742 26.78">
  <path id="Path_5630" data-name="Path 5630" d="M96.13,274.064a7.089,7.089,0,0,0,9.817-2,7.221,7.221,0,0,0,.538-.977,7.085,7.085,0,0,1-9.991-9.067,6.915,6.915,0,0,0-1.547,1.208,7.168,7.168,0,0,0-.818,1.021A7.083,7.083,0,0,0,96.13,274.064Z" transform="translate(-68.744 -262.017)" fill="#fff479"/>
  <path id="Path_5631" data-name="Path 5631" d="M109.694,275.669a4.777,4.777,0,0,0-1.5.237c0-.078.013-.157.013-.237a3.947,3.947,0,0,0-5.1-3.782,7.535,7.535,0,0,0-15.026.572c-.042,0-.085,0-.127,0a6.425,6.425,0,1,0,0,12.85h21.741a4.818,4.818,0,0,0,0-9.635Z" transform="translate(-81.528 -258.525)" fill="#fff"/>
</svg>
