<svg id="Group_5057" data-name="Group 5057" xmlns="http://www.w3.org/2000/svg" width="45.421" height="24.89" viewBox="0 0 45.421 24.89">
  <path id="Path_5626" data-name="Path 5626" d="M140.262,275.687a4.672,4.672,0,0,0-1.5.242c0-.078.011-.163.011-.242a3.961,3.961,0,0,0-3.963-3.96,4.01,4.01,0,0,0-1.157.169,7.552,7.552,0,0,0-15.06.576c-.047,0-.087,0-.131,0a6.44,6.44,0,1,0,0,12.879h21.8a4.83,4.83,0,0,0,0-9.661Z" transform="translate(-112.024 -260.457)" fill="#fff"/>
  <path id="Path_5627" data-name="Path 5627" d="M142.442,273.486a4.721,4.721,0,0,0-1.5.239c0-.078.008-.161.008-.239a3.97,3.97,0,0,0-5.117-3.791,7.549,7.549,0,0,0-14.719-1.46,8.527,8.527,0,0,1,3.2,4.734.227.227,0,0,0,.214.161l.112,0a5.025,5.025,0,0,1,4.88,3.812.214.214,0,0,0,.22.161c.114,0,.233-.009.35-.009a5.9,5.9,0,0,1,5.9,5.9c0,.053-.006.106-.008.161h6.467a4.83,4.83,0,0,0,0-9.661Z" transform="translate(-101.85 -262.925)" fill="#fff"/>
</svg>
